# 3ds Max Wavefront OBJ Exporter v0.99 - (c)2007 guruware
# File Created: 11.03.2026 21:45:34

#
# object Box001
#

v  -0.500 -0.500 0.000
v  -0.500 0.500 0.000
v  0.500 0.500 0.000
v  0.500 -0.500 0.000
v  -0.500 -0.500 1.000
v  0.500 -0.500 1.000
v  0.500 0.500 1.000
v  -0.500 0.500 1.000
# 8 vertices

vn 0.000 0.000 -1.000
vn 0.000 0.000 1.000
vn 0.000 -1.000 0.000
vn 1.000 0.000 0.000
vn 0.000 1.000 0.000
vn -1.000 0.000 0.000
# 6 vertex normals

vt 0.500 0.000 0.000
vt 0.500 0.500 0.000
vt 0.000 0.500 0.000
vt 0.000 0.000 0.000
vt 0.500 1.000 0.000
vt 0.000 1.000 0.000
vt 1.000 0.000 0.000
vt 1.000 0.500 0.000
# 8 texture coords

o Box001
g Box001
f 1/1/1 2/2/1 3/3/1 
f 3/3/1 4/4/1 1/1/1 
f 5/4/2 6/1/2 7/2/2 
f 7/2/2 8/3/2 5/4/2 
f 1/5/3 4/6/3 6/3/3 
f 6/3/3 5/2/3 1/5/3 
f 4/7/4 3/8/4 7/2/4 
f 7/2/4 6/1/4 4/7/4 
f 3/3/5 2/2/5 8/5/5 
f 8/5/5 7/6/5 3/3/5 
f 2/2/6 1/1/6 5/7/6 
f 5/7/6 8/8/6 2/2/6 
# 12 faces

